<?xml version="1.0" encoding="UTF-8" standalone="no"?><svg xmlns="http://www.w3.org/2000/svg" xmlns:xlink="http://www.w3.org/1999/xlink" contentStyleType="text/css" height="231px" preserveAspectRatio="none" style="width:831px;height:231px;background:#FFFFFF;" version="1.1" viewBox="0 0 831 231" width="831px" zoomAndPan="magnify"><defs/><g><!--MD5=[b6753b7234a365fdd29a26c497ea643f]
cluster User Device--><g id="cluster_User Device"><polygon fill="none" points="16,16,26,6,319,6,319,204,309,214,16,214,16,16" style="stroke:#181818;stroke-width:1.0;"/><line style="stroke:#181818;stroke-width:1.0;" x1="309" x2="319" y1="16" y2="6"/><line style="stroke:#181818;stroke-width:1.0;" x1="16" x2="309" y1="16" y2="16"/><line style="stroke:#181818;stroke-width:1.0;" x1="309" x2="309" y1="16" y2="214"/><text fill="#000000" font-family="sans-serif" font-size="14" font-weight="bold" lengthAdjust="spacing" textLength="95" x="116" y="31.9951">User Device</text></g><!--MD5=[5b56dc57bd2b27a63f341f73f18abd2f]
cluster File System--><g id="cluster_File System"><polygon fill="none" points="343,16,353,6,814,6,814,204,804,214,343,214,343,16" style="stroke:#181818;stroke-width:1.0;"/><line style="stroke:#181818;stroke-width:1.0;" x1="804" x2="814" y1="16" y2="6"/><line style="stroke:#181818;stroke-width:1.0;" x1="343" x2="804" y1="16" y2="16"/><line style="stroke:#181818;stroke-width:1.0;" x1="804" x2="804" y1="16" y2="214"/><text fill="#000000" font-family="sans-serif" font-size="14" font-weight="bold" lengthAdjust="spacing" textLength="90" x="529.5" y="31.9951">File System</text></g><!--MD5=[f616d7788a59100e38eaa4b470060dd1]
entity Tkinter GUI--><g id="elem_Tkinter GUI"><rect fill="#F1F1F1" height="46.2969" rx="2.5" ry="2.5" style="stroke:#181818;stroke-width:0.5;" width="116" x="32" y="46"/><rect fill="#F1F1F1" height="10" style="stroke:#181818;stroke-width:0.5;" width="15" x="128" y="51"/><rect fill="#F1F1F1" height="2" style="stroke:#181818;stroke-width:0.5;" width="4" x="126" y="53"/><rect fill="#F1F1F1" height="2" style="stroke:#181818;stroke-width:0.5;" width="4" x="126" y="57"/><text fill="#000000" font-family="sans-serif" font-size="14" lengthAdjust="spacing" textLength="76" x="47" y="78.9951">Tkinter GUI</text></g><!--MD5=[1328ab1c58188ce9860ab47bac29c99c]
entity Python App--><g id="elem_Python App"><rect fill="#F1F1F1" height="46.2969" rx="2.5" ry="2.5" style="stroke:#181818;stroke-width:0.5;" width="119" x="183.5" y="46"/><rect fill="#F1F1F1" height="10" style="stroke:#181818;stroke-width:0.5;" width="15" x="282.5" y="51"/><rect fill="#F1F1F1" height="2" style="stroke:#181818;stroke-width:0.5;" width="4" x="280.5" y="53"/><rect fill="#F1F1F1" height="2" style="stroke:#181818;stroke-width:0.5;" width="4" x="280.5" y="57"/><text fill="#000000" font-family="sans-serif" font-size="14" lengthAdjust="spacing" textLength="79" x="198.5" y="78.9951">Python App</text></g><!--MD5=[213f4db98d632b03c37bb51161860713]
entity OpenCV Camera Access--><g id="elem_OpenCV Camera Access"><rect fill="#F1F1F1" height="46.2969" rx="2.5" ry="2.5" style="stroke:#181818;stroke-width:0.5;" width="208" x="32" y="152"/><rect fill="#F1F1F1" height="10" style="stroke:#181818;stroke-width:0.5;" width="15" x="220" y="157"/><rect fill="#F1F1F1" height="2" style="stroke:#181818;stroke-width:0.5;" width="4" x="218" y="159"/><rect fill="#F1F1F1" height="2" style="stroke:#181818;stroke-width:0.5;" width="4" x="218" y="163"/><text fill="#000000" font-family="sans-serif" font-size="14" lengthAdjust="spacing" textLength="168" x="47" y="184.9951">OpenCV Camera Access</text></g><!--MD5=[f24f64703bb853bcc776585a30bde807]
entity TrainingImage/--><g id="elem_TrainingImage/"><rect fill="#F1F1F1" height="46.2969" rx="2.5" ry="2.5" style="stroke:#181818;stroke-width:0.5;" width="142" x="359" y="46"/><rect fill="#F1F1F1" height="10" style="stroke:#181818;stroke-width:0.5;" width="15" x="481" y="51"/><rect fill="#F1F1F1" height="2" style="stroke:#181818;stroke-width:0.5;" width="4" x="479" y="53"/><rect fill="#F1F1F1" height="2" style="stroke:#181818;stroke-width:0.5;" width="4" x="479" y="57"/><text fill="#000000" font-family="sans-serif" font-size="14" lengthAdjust="spacing" textLength="102" x="374" y="78.9951">TrainingImage/</text></g><!--MD5=[5b82167c78f91c64604d56071411e9e3]
entity TrainingImageLabel/Trainner.yml--><g id="elem_TrainingImageLabel/Trainner.yml"><rect fill="#F1F1F1" height="46.2969" rx="2.5" ry="2.5" style="stroke:#181818;stroke-width:0.5;" width="262" x="536" y="46"/><rect fill="#F1F1F1" height="10" style="stroke:#181818;stroke-width:0.5;" width="15" x="778" y="51"/><rect fill="#F1F1F1" height="2" style="stroke:#181818;stroke-width:0.5;" width="4" x="776" y="53"/><rect fill="#F1F1F1" height="2" style="stroke:#181818;stroke-width:0.5;" width="4" x="776" y="57"/><text fill="#000000" font-family="sans-serif" font-size="14" lengthAdjust="spacing" textLength="222" x="551" y="78.9951">TrainingImageLabel/Trainner.yml</text></g><!--MD5=[213ea45b2dce60d963a554a86dbbf31a]
entity EmpDetails/EmpDetails.csv--><g id="elem_EmpDetails/EmpDetails.csv"><rect fill="#F1F1F1" height="46.2969" rx="2.5" ry="2.5" style="stroke:#181818;stroke-width:0.5;" width="228" x="359" y="152"/><rect fill="#F1F1F1" height="10" style="stroke:#181818;stroke-width:0.5;" width="15" x="567" y="157"/><rect fill="#F1F1F1" height="2" style="stroke:#181818;stroke-width:0.5;" width="4" x="565" y="159"/><rect fill="#F1F1F1" height="2" style="stroke:#181818;stroke-width:0.5;" width="4" x="565" y="163"/><text fill="#000000" font-family="sans-serif" font-size="14" lengthAdjust="spacing" textLength="188" x="374" y="184.9951">EmpDetails/EmpDetails.csv</text></g><!--MD5=[3ab84acd5db4870c752e7a6fb6e35579]
entity Attendance/--><g id="elem_Attendance/"><rect fill="#F1F1F1" height="46.2969" rx="2.5" ry="2.5" style="stroke:#181818;stroke-width:0.5;" width="125" x="622.5" y="152"/><rect fill="#F1F1F1" height="10" style="stroke:#181818;stroke-width:0.5;" width="15" x="727.5" y="157"/><rect fill="#F1F1F1" height="2" style="stroke:#181818;stroke-width:0.5;" width="4" x="725.5" y="159"/><rect fill="#F1F1F1" height="2" style="stroke:#181818;stroke-width:0.5;" width="4" x="725.5" y="163"/><text fill="#000000" font-family="sans-serif" font-size="14" lengthAdjust="spacing" textLength="85" x="637.5" y="184.9951">Attendance/</text></g><!--MD5=[2fb107099cae0c2bb7583a1f2cd1a371]
@startuml
node "User Device" {
  [Tkinter GUI]
  [Python App]
  [OpenCV Camera Access]
}

node "File System" {
  [TrainingImage/]
  [TrainingImageLabel/Trainner.yml]
  [EmpDetails/EmpDetails.csv]
  [Attendance/]
}
@enduml

PlantUML version 1.2022.7(Mon Aug 22 17:01:30 UTC 2022)
(GPL source distribution)
Java Runtime: OpenJDK Runtime Environment
JVM: OpenJDK 64-Bit Server VM
Default Encoding: UTF-8
Language: en
Country: null
--></g></svg>