<?xml version="1.0" encoding="UTF-8" standalone="no"?><svg xmlns="http://www.w3.org/2000/svg" xmlns:xlink="http://www.w3.org/1999/xlink" contentStyleType="text/css" height="303px" preserveAspectRatio="none" style="width:767px;height:303px;background:#FFFFFF;" version="1.1" viewBox="0 0 767 303" width="767px" zoomAndPan="magnify"><defs/><g><!--MD5=[bde8bdc6ed133eea7250102865107a85]
cluster Face Recognition System--><g id="cluster_Face Recognition System"><rect fill="none" height="191" rx="2.5" ry="2.5" style="stroke:#181818;stroke-width:1.0;" width="754" x="7" y="106.5"/><text fill="#000000" font-family="sans-serif" font-size="14" font-weight="bold" lengthAdjust="spacing" textLength="198" x="285" y="121.4951">Face Recognition System</text></g><g id="elem_Register Employee"><ellipse cx="459.8592" cy="160.8718" fill="#F1F1F1" rx="84.8592" ry="19.3718" style="stroke:#181818;stroke-width:0.5;"/><text fill="#000000" font-family="sans-serif" font-size="14" lengthAdjust="spacing" textLength="130" x="394.8592" y="163.7185">Register Employee</text></g><g id="elem_Mark Attendance"><ellipse cx="259.8735" cy="160.7747" fill="#F1F1F1" rx="79.3735" ry="18.2747" style="stroke:#181818;stroke-width:0.5;"/><text fill="#000000" font-family="sans-serif" font-size="14" lengthAdjust="spacing" textLength="117" x="199.4676" y="164.2248">Mark Attendance</text></g><g id="elem_EmpDetails.csv"><ellipse cx="453.1066" cy="260.8213" fill="#F1F1F1" rx="74.6066" ry="17.3213" style="stroke:#181818;stroke-width:0.5;"/><text fill="#000000" font-family="sans-serif" font-size="14" lengthAdjust="spacing" textLength="105" x="397.6066" y="264.5689">EmpDetails.csv</text></g><g id="elem_TrainingImage Folder"><ellipse cx="653.9996" cy="261.0999" fill="#F1F1F1" rx="90.9996" ry="20.5999" style="stroke:#181818;stroke-width:0.5;"/><text fill="#000000" font-family="sans-serif" font-size="14" lengthAdjust="spacing" textLength="144" x="581.9996" y="263.9466">TrainingImage Folder</text></g><g id="elem_Trainner.yml"><ellipse cx="89.8142" cy="260.7628" fill="#F1F1F1" rx="66.8142" ry="15.7628" style="stroke:#181818;stroke-width:0.5;"/><text fill="#000000" font-family="sans-serif" font-size="14" lengthAdjust="spacing" textLength="84" x="44.8142" y="264.5104">Trainner.yml</text></g><g id="elem_Attendance.csv"><ellipse cx="267.8844" cy="260.9769" fill="#F1F1F1" rx="75.3844" ry="17.4769" style="stroke:#181818;stroke-width:0.5;"/><text fill="#000000" font-family="sans-serif" font-size="14" lengthAdjust="spacing" textLength="107" x="211.3844" y="264.7244">Attendance.csv</text></g><!--MD5=[fee662a292a0353a69bd162820bae93b]
entity User--><g id="elem_User"><ellipse cx="360" cy="14" fill="#F1F1F1" rx="8" ry="8" style="stroke:#181818;stroke-width:0.5;"/><path d="M360,22 L360,49 M347,30 L373,30 M360,49 L347,64 M360,49 L373,64 " fill="none" style="stroke:#181818;stroke-width:0.5;"/><text fill="#000000" font-family="sans-serif" font-size="14" lengthAdjust="spacing" textLength="32" x="344" y="78.4951">User</text></g><!--MD5=[9f4df5d0d42897bac3ede2b734501e35]
link User to Register Employee--><g id="link_User_Register Employee"><path d="M376.07,63.06 C393.63,83.35 421.78,115.86 440.58,137.57 " fill="none" id="User-to-Register Employee" style="stroke:#181818;stroke-width:1.0;"/><polygon fill="#181818" points="443.97,141.49,441.0943,132.0703,440.6937,137.713,435.0511,137.3124,443.97,141.49" style="stroke:#181818;stroke-width:1.0;"/></g><!--MD5=[ad8fa075e3ba0f725cfd47dda748fe9c]
link User to Mark Attendance--><g id="link_User_Mark Attendance"><path d="M343.93,63.06 C326.05,83.71 297.21,117.02 278.43,138.71 " fill="none" id="User-to-Mark Attendance" style="stroke:#181818;stroke-width:1.0;"/><polygon fill="#181818" points="275.05,142.62,283.9689,138.4424,278.3263,138.843,277.9257,133.2003,275.05,142.62" style="stroke:#181818;stroke-width:1.0;"/></g><!--MD5=[0d30b9e72745358a2afb26a1a519bf70]
link Register Employee to EmpDetails.csv--><g id="link_Register Employee_EmpDetails.csv"><path d="M458.65,180.9 C457.48,197.33 455.78,221.13 454.55,238.33 " fill="none" id="Register Employee-to-EmpDetails.csv" style="stroke:#181818;stroke-width:1.0;"/><polygon fill="#181818" points="454.18,243.44,458.8128,234.7488,454.5373,238.4528,450.8333,234.1772,454.18,243.44" style="stroke:#181818;stroke-width:1.0;"/></g><!--MD5=[bb16e9ae2f7e63c41dd8237c7bfb7188]
link Register Employee to TrainingImage Folder--><g id="link_Register Employee_TrainingImage Folder"><path d="M493.79,179.07 C527.14,195.92 578.15,221.68 613.62,239.6 " fill="none" id="Register Employee-to-TrainingImage Folder" style="stroke:#181818;stroke-width:1.0;"/><polygon fill="#181818" points="618.3,241.96,612.0585,234.3414,613.8336,239.7125,608.4625,241.4876,618.3,241.96" style="stroke:#181818;stroke-width:1.0;"/></g><!--MD5=[e4445145a86b56291afebbfa3962c6e8]
link Mark Attendance to Trainner.yml--><g id="link_Mark Attendance_Trainner.yml"><path d="M231.55,178.4 C200.28,196.42 150.35,225.21 118.91,243.34 " fill="none" id="Mark Attendance-to-Trainner.yml" style="stroke:#181818;stroke-width:1.0;"/><polygon fill="#181818" points="114.41,245.93,124.2041,244.8926,118.7397,243.4293,120.203,237.965,114.41,245.93" style="stroke:#181818;stroke-width:1.0;"/></g><!--MD5=[bfe5f91cf26909c06e51f8124554438e]
link Mark Attendance to Attendance.csv--><g id="link_Mark Attendance_Attendance.csv"><path d="M261.43,179.52 C262.77,195.89 264.77,220.37 266.21,238.04 " fill="none" id="Mark Attendance-to-Attendance.csv" style="stroke:#181818;stroke-width:1.0;"/><polygon fill="#181818" points="266.64,243.29,269.9074,233.9989,266.2401,238.306,261.9331,234.6387,266.64,243.29" style="stroke:#181818;stroke-width:1.0;"/></g><!--MD5=[2e7438f21f469b75a08b1238b0952c2f]
@startuml
actor User

rectangle "Face Recognition System" {
  User - -> (Register Employee)
  User - -> (Mark Attendance)
  (Register Employee) - -> (EmpDetails.csv)
  (Register Employee) - -> (TrainingImage Folder)
  (Mark Attendance) - -> (Trainner.yml)
  (Mark Attendance) - -> (Attendance.csv)
}
@enduml

PlantUML version 1.2022.7(Mon Aug 22 17:01:30 UTC 2022)
(GPL source distribution)
Java Runtime: OpenJDK Runtime Environment
JVM: OpenJDK 64-Bit Server VM
Default Encoding: UTF-8
Language: en
Country: null
--></g></svg>